<?xml version="1.0" encoding="utf-8"?>
<!-- Generator: Adobe Illustrator 27.0.0, SVG Export Plug-In . SVG Version: 6.00 Build 0)  -->
<svg version="1.1" id="OBJECTS" xmlns="http://www.w3.org/2000/svg" xmlns:xlink="http://www.w3.org/1999/xlink" x="0px" y="0px"
	 viewBox="0 0 33.1 62.6" style="enable-background:new 0 0 33.1 62.6;" xml:space="preserve">
<style type="text/css">
	.st0{fill:url(#SVGID_1_);}
	.st1{fill:url(#SVGID_00000026875289869638568680000000804710564343143074_);}
	.st2{fill:url(#SVGID_00000112629585034670309820000003619411237733010334_);}
	.st3{fill:url(#SVGID_00000161625586782271303540000015894736717408218249_);}
	.st4{fill:url(#SVGID_00000169540134982025879760000008786544133531768484_);}
	.st5{fill:url(#SVGID_00000032608243148492473910000008450668338563685052_);}
	.st6{fill:url(#SVGID_00000003802050343812032080000009485153644737801914_);}
	.st7{fill:url(#SVGID_00000080191563696423860390000009487302245432580245_);}
	.st8{fill:url(#SVGID_00000179633728057679847020000015860161680731609984_);}
	.st9{fill:url(#SVGID_00000045605292901458834630000002507081216755967376_);}
	.st10{fill:url(#SVGID_00000024002611180957474120000003025554844411443107_);}
	.st11{fill:url(#SVGID_00000070799432186644008140000007769515735357265087_);}
	.st12{fill:url(#SVGID_00000098912628089540346470000006376545642392382621_);}
	.st13{fill:url(#SVGID_00000129186545298817671560000005879837007079772328_);}
	.st14{fill:url(#SVGID_00000161619221551595954200000007368925980581183648_);}
	.st15{fill:url(#SVGID_00000168086862600462971500000012743576509720305594_);}
	.st16{fill:url(#SVGID_00000073693340069765313160000012661085686127407253_);}
	.st17{fill:url(#SVGID_00000173840228630948678040000001617246291693224383_);}
	.st18{fill:url(#SVGID_00000068670485802477148050000006981683588673285009_);}
	.st19{fill:url(#SVGID_00000169554748103767734980000011748870495790430136_);}
	.st20{fill:url(#SVGID_00000023976327371042841250000005232565072588947131_);}
	.st21{fill:url(#SVGID_00000123416025069396486900000008299461754664325277_);}
	.st22{fill:url(#SVGID_00000120517589223795395500000016590846990197618586_);}
</style>
<linearGradient id="SVGID_1_" gradientUnits="userSpaceOnUse" x1="815.5596" y1="-1199.7573" x2="851.4597" y2="-1199.7573" gradientTransform="matrix(0.256 0 0 -0.256 -208.6374 -262.7935)">
	<stop  offset="0" style="stop-color:#D53B3D"/>
	<stop  offset="1" style="stop-color:#990014"/>
</linearGradient>
<polygon class="st0" points="0.1,40.7 9.3,40.7 9.3,46.5 0.1,47.9 "/>
<linearGradient id="SVGID_00000054259751274482027950000007849837034093386931_" gradientUnits="userSpaceOnUse" x1="815.5596" y1="-1228.2623" x2="880.0096" y2="-1228.2623" gradientTransform="matrix(0.256 0 0 -0.256 -208.6374 -262.7935)">
	<stop  offset="0" style="stop-color:#D53B3D"/>
	<stop  offset="1" style="stop-color:#FC5F5A"/>
</linearGradient>
<polygon style="fill:url(#SVGID_00000054259751274482027950000007849837034093386931_);" points="16.6,50.4 16.6,56.8 15.6,56.2 
	12,54.3 12,54.3 11.1,53.8 0.1,47.9 9.3,46.5 12,47.9 15.6,49.8 "/>
<linearGradient id="SVGID_00000081645053444803214890000011710695269395483293_" gradientUnits="userSpaceOnUse" x1="-735.2328" y1="1441.7251" x2="-697.7527" y2="1441.7251" gradientTransform="matrix(-0.256 0 0 0.256 -155.0753 -325.5488)">
	<stop  offset="0" style="stop-color:#D53B3D"/>
	<stop  offset="1" style="stop-color:#990014"/>
</linearGradient>
<rect x="23.5" y="39.1" style="fill:url(#SVGID_00000081645053444803214890000011710695269395483293_);" width="9.6" height="8.8"/>
<linearGradient id="SVGID_00000016797314012263508030000000954695693109934509_" gradientUnits="userSpaceOnUse" x1="858.1896" y1="-1227.7772" x2="944.4697" y2="-1227.7772" gradientTransform="matrix(0.256 0 0 -0.256 -208.6374 -262.7935)">
	<stop  offset="0" style="stop-color:#D53B3D"/>
	<stop  offset="1" style="stop-color:#FC5F5A"/>
</linearGradient>
<polygon style="fill:url(#SVGID_00000016797314012263508030000000954695693109934509_);" points="33.1,47.9 21.6,54.2 19.9,55.1 
	17.9,56.1 16.6,56.8 15.6,56.2 12,54.3 11.1,53.8 12,53.3 15.6,51.1 16.6,50.4 17.9,49.6 21.6,47.4 23.5,46.3 23.5,46.3 "/>
<linearGradient id="SVGID_00000026158239019754730320000003540011109796422824_" gradientUnits="userSpaceOnUse" x1="-873.5028" y1="1592.6501" x2="-837.6028" y2="1592.6501" gradientTransform="matrix(-0.256 0 0 0.256 -190.6158 -388.3712)">
	<stop  offset="0" style="stop-color:#D53B3D"/>
	<stop  offset="1" style="stop-color:#990014"/>
</linearGradient>
<polygon style="fill:url(#SVGID_00000026158239019754730320000003540011109796422824_);" points="33,23 23.8,23 23.8,17.2 33,15.7 
	"/>
<linearGradient id="SVGID_00000120539169857966043580000002030148381195695502_" gradientUnits="userSpaceOnUse" x1="879.4396" y1="-1073.6073" x2="943.8997" y2="-1073.6073" gradientTransform="matrix(0.256 0 0 -0.256 -208.6374 -262.7935)">
	<stop  offset="0" style="stop-color:#D53B3D"/>
	<stop  offset="1" style="stop-color:#FC5F5A"/>
</linearGradient>
<polygon style="fill:url(#SVGID_00000120539169857966043580000002030148381195695502_);" points="33,15.7 23.8,17.2 21.6,16 
	17.9,14 16.5,13.3 16.5,13.3 16.5,6.9 17.9,7.7 19.6,8.6 21.6,9.6 22.1,9.9 "/>
<linearGradient id="SVGID_00000075876678756236583750000006070063915834675630_" gradientUnits="userSpaceOnUse" x1="953.8196" y1="-1350.6873" x2="991.2996" y2="-1350.6873" gradientTransform="matrix(0.256 0 0 -0.256 -244.1778 -325.616)">
	<stop  offset="0" style="stop-color:#D53B3D"/>
	<stop  offset="1" style="stop-color:#990014"/>
</linearGradient>
<rect y="15.7" style="fill:url(#SVGID_00000075876678756236583750000006070063915834675630_);" width="9.6" height="8.8"/>
<linearGradient id="SVGID_00000058559822487814851940000014168129948387910541_" gradientUnits="userSpaceOnUse" x1="814.9896" y1="-1074.0973" x2="901.2596" y2="-1074.0973" gradientTransform="matrix(0.256 0 0 -0.256 -208.6374 -262.7935)">
	<stop  offset="0" style="stop-color:#D53B3D"/>
	<stop  offset="1" style="stop-color:#FC5F5A"/>
</linearGradient>
<polygon style="fill:url(#SVGID_00000058559822487814851940000014168129948387910541_);" points="22.1,9.9 21.6,10.2 17.9,12.4 
	16.5,13.3 16.5,13.3 15.6,13.8 12,16 9.6,17.4 9.6,17.4 0,15.7 12,9.3 13.3,8.6 15.6,7.4 16.5,6.9 17.9,7.7 19.1,8.3 21.6,9.6 
	21.6,9.6 "/>
<linearGradient id="SVGID_00000012447228510146139960000016496858499279752362_" gradientUnits="userSpaceOnUse" x1="814.9896" y1="-1121.7473" x2="861.6896" y2="-1121.7473" gradientTransform="matrix(0.256 0 0 -0.256 -208.6374 -262.7935)">
	<stop  offset="0" style="stop-color:#D53B3D"/>
	<stop  offset="1" style="stop-color:#990014"/>
</linearGradient>
<polygon style="fill:url(#SVGID_00000012447228510146139960000016496858499279752362_);" points="9.6,22.5 12,24.2 12,33 0,24.6 
	0,15.7 "/>
<linearGradient id="SVGID_00000040561969046903114870000013984306052373556658_" gradientUnits="userSpaceOnUse" x1="875.8297" y1="-1151.4272" x2="885.0397" y2="-1151.4272" gradientTransform="matrix(0.256 0 0 -0.256 -208.6374 -262.7935)">
	<stop  offset="0" style="stop-color:#D53B3D"/>
	<stop  offset="1" style="stop-color:#990014"/>
</linearGradient>
<polygon style="fill:url(#SVGID_00000040561969046903114870000013984306052373556658_);" points="15.6,26.7 17.9,28.4 17.9,37.2 
	15.6,35.6 "/>
<linearGradient id="SVGID_00000139262629336480604800000013195710578603839902_" gradientUnits="userSpaceOnUse" x1="899.1797" y1="-1180.6173" x2="944.4697" y2="-1180.6173" gradientTransform="matrix(0.256 0 0 -0.256 -208.6374 -262.7935)">
	<stop  offset="0" style="stop-color:#D53B3D"/>
	<stop  offset="1" style="stop-color:#990014"/>
</linearGradient>
<polygon style="fill:url(#SVGID_00000139262629336480604800000013195710578603839902_);" points="33.1,39.1 33.1,47.9 23.5,41.2 
	21.6,39.8 21.6,30.9 "/>
<linearGradient id="SVGID_00000056421909578756688660000012139672566171988155_" gradientUnits="userSpaceOnUse" x1="892.1097" y1="-1220.4272" x2="892.1097" y2="-1081.3972" gradientTransform="matrix(0.256 0 0 -0.256 -208.6374 -262.7935)">
	<stop  offset="0" style="stop-color:#D53B3D"/>
	<stop  offset="1" style="stop-color:#FC5F5A"/>
</linearGradient>
<polygon style="fill:url(#SVGID_00000056421909578756688660000012139672566171988155_);" points="21.6,16 21.6,47.4 17.9,49.6 
	17.9,14 "/>
<linearGradient id="SVGID_00000162352154698388822000000001236356195627599523_" gradientUnits="userSpaceOnUse" x1="892.1097" y1="-1064.0873" x2="892.1097" y2="-1026.5372" gradientTransform="matrix(0.256 0 0 -0.256 -208.6374 -262.7935)">
	<stop  offset="0" style="stop-color:#D53B3D"/>
	<stop  offset="1" style="stop-color:#FC5F5A"/>
</linearGradient>
<polygon style="fill:url(#SVGID_00000162352154698388822000000001236356195627599523_);" points="21.6,0 21.6,9.6 17.9,7.7 17.9,0 
	"/>
<linearGradient id="SVGID_00000059997020289364942450000003859572558575117751_" gradientUnits="userSpaceOnUse" x1="868.7596" y1="-1063.0272" x2="868.7596" y2="-1026.5372" gradientTransform="matrix(0.256 0 0 -0.256 -208.6374 -262.7935)">
	<stop  offset="0" style="stop-color:#D53B3D"/>
	<stop  offset="1" style="stop-color:#FC5F5A"/>
</linearGradient>
<polygon style="fill:url(#SVGID_00000059997020289364942450000003859572558575117751_);" points="12,0 15.6,0 15.6,7.4 13.3,8.6 
	12,9.3 "/>
<linearGradient id="SVGID_00000127010891388820269700000014171220633290315670_" gradientUnits="userSpaceOnUse" x1="868.7596" y1="-1271.0673" x2="868.7596" y2="-1238.5372" gradientTransform="matrix(0.256 0 0 -0.256 -208.6374 -262.7935)">
	<stop  offset="0" style="stop-color:#D53B3D"/>
	<stop  offset="1" style="stop-color:#FC5F5A"/>
</linearGradient>
<polygon style="fill:url(#SVGID_00000127010891388820269700000014171220633290315670_);" points="12,54.3 15.6,56.2 15.6,62.6 
	12,62.6 "/>
<linearGradient id="SVGID_00000000933193801695457110000016140322265537462414_" gradientUnits="userSpaceOnUse" x1="892.1097" y1="-1271.0673" x2="892.1097" y2="-1238.0873" gradientTransform="matrix(0.256 0 0 -0.256 -208.6374 -262.7935)">
	<stop  offset="0" style="stop-color:#D53B3D"/>
	<stop  offset="1" style="stop-color:#FC5F5A"/>
</linearGradient>
<polygon style="fill:url(#SVGID_00000000933193801695457110000016140322265537462414_);" points="21.6,54.2 21.6,62.6 17.9,62.6 
	17.9,56.1 19.9,55.1 "/>
<linearGradient id="SVGID_00000041977308632293825780000018098163797222208924_" gradientUnits="userSpaceOnUse" x1="868.7596" y1="-1221.2273" x2="868.7596" y2="-1080.5873" gradientTransform="matrix(0.256 0 0 -0.256 -208.6374 -262.7935)">
	<stop  offset="0" style="stop-color:#D53B3D"/>
	<stop  offset="1" style="stop-color:#FC5F5A"/>
</linearGradient>
<polygon style="fill:url(#SVGID_00000041977308632293825780000018098163797222208924_);" points="15.6,13.8 15.6,49.8 12,47.9 
	12,16 "/>
<linearGradient id="SVGID_00000087398409388535594110000011091155606712628904_" gradientUnits="userSpaceOnUse" x1="890.4545" y1="-1099.8867" x2="892.1744" y2="-1084.6067" gradientTransform="matrix(0.256 0 0 -0.256 -208.6374 -262.7935)">
	<stop  offset="0" style="stop-color:#D53B3D;stop-opacity:0"/>
	<stop  offset="1" style="stop-color:#2A422F"/>
</linearGradient>
<polygon style="fill:url(#SVGID_00000087398409388535594110000011091155606712628904_);" points="21.6,16 17.9,18.9 17.9,14 "/>
<linearGradient id="SVGID_00000152224630750955300900000003119450068788119176_" gradientUnits="userSpaceOnUse" x1="-871.723" y1="-1099.0873" x2="-870.003" y2="-1083.7972" gradientTransform="matrix(-0.256 0 0 -0.256 -208.9863 -262.7935)">
	<stop  offset="0" style="stop-color:#D53B3D;stop-opacity:0"/>
	<stop  offset="1" style="stop-color:#2A422F"/>
</linearGradient>
<polygon style="fill:url(#SVGID_00000152224630750955300900000003119450068788119176_);" points="12,16 15.6,18.7 15.6,13.8 "/>
<linearGradient id="SVGID_00000061434849389254899230000016776165548629331863_" gradientUnits="userSpaceOnUse" x1="890.4081" y1="1609.7053" x2="892.2181" y2="1625.8153" gradientTransform="matrix(0.256 0 0 0.256 -208.6374 -367.4279)">
	<stop  offset="0" style="stop-color:#D53B3D;stop-opacity:0"/>
	<stop  offset="1" style="stop-color:#2A422F"/>
</linearGradient>
<polygon style="fill:url(#SVGID_00000061434849389254899230000016776165548629331863_);" points="21.6,47.4 17.9,44.5 17.9,49.6 "/>
<linearGradient id="SVGID_00000127726998528933615910000005543226244748199082_" gradientUnits="userSpaceOnUse" x1="-871.8817" y1="1610.5249" x2="-870.0717" y2="1626.625" gradientTransform="matrix(-0.256 0 0 0.256 -208.9863 -367.4279)">
	<stop  offset="0" style="stop-color:#D53B3D;stop-opacity:0"/>
	<stop  offset="1" style="stop-color:#2A422F"/>
</linearGradient>
<polygon style="fill:url(#SVGID_00000127726998528933615910000005543226244748199082_);" points="12,47.9 15.6,44.7 15.6,49.8 "/>
<linearGradient id="SVGID_00000163049401671866646180000007694667192981382024_" gradientUnits="userSpaceOnUse" x1="833.9247" y1="-1096.3971" x2="833.3248" y2="-1111.327" gradientTransform="matrix(0.256 0 0 -0.256 -208.6374 -262.7935)">
	<stop  offset="0" style="stop-color:#D53B3D;stop-opacity:0"/>
	<stop  offset="1" style="stop-color:#2A422F"/>
</linearGradient>
<polygon style="fill:url(#SVGID_00000163049401671866646180000007694667192981382024_);" points="0,15.7 9.6,20.5 9.6,22.5 "/>
<linearGradient id="SVGID_00000144328195084668925080000011506285285903582088_" gradientUnits="userSpaceOnUse" x1="-904.8277" y1="1615.5249" x2="-905.4277" y2="1600.5948" gradientTransform="matrix(-0.256 0 0 0.256 -203.339 -367.7556)">
	<stop  offset="0" style="stop-color:#D53B3D;stop-opacity:0"/>
	<stop  offset="1" style="stop-color:#2A422F"/>
</linearGradient>
<polygon style="fill:url(#SVGID_00000144328195084668925080000011506285285903582088_);" points="33.1,48 23.5,43.2 23.5,41.2 "/>
</svg>
